PathFileType	4	(X/Y/Z)	Patient4_TMGait_0pt6_02_right_12.trc.trc
DataRate	CameraRate	NumFrames	NumMarkers	Units	OrigDataRate	OrigDataStartFrame	OrigNumFrames
80.000000000000	80.000000000000	5	33	mm	80.000000000000	1	       141
Frame#	Time	Sacral			L.Shoulder			Chest			R.Shoulder			Neck			R.ASIS			L.ASIS			R.Thigh.Superior			R.Thigh.Lateral			R.Thigh.Inferior			R.Patella			L.Thigh.Superior			L.Thigh.Lateral			L.Thigh.Inferior			L.Patella			L.Shank.Superior			L.Shank.Lateral			L.Shank.Inferior			R.Shank.Superior			R.Shank.Lateral			R.Shank.Inferior			R.Heel			R.Midfoot.Superior			R.Midfoot.Lateral			R.Toe			L.Heel			L.Midfoot.Lateral			L.Midfoot.Superior			L.Toe			L.Elbow			L.Wrist			R.Elbow			R.Wrist			
		X1	Y1	Z1	X2	Y2	Z2	X3	Y3	Z3	X4	Y4	Z4	X5	Y5	Z5	X6	Y6	Z6	X7	Y7	Z7	X8	Y8	Z8	X9	Y9	Z9	X10	Y10	Z10	X11	Y11	Z11	X12	Y12	Z12	X13	Y13	Z13	X14	Y14	Z14	X15	Y15	Z15	X16	Y16	Z16	X17	Y17	Z17	X18	Y18	Z18	X19	Y19	Z19	X20	Y20	Z20	X21	Y21	Z21	X22	Y22	Z22	X23	Y23	Z23	X24	Y24	Z24	X25	Y25	Z25	X26	Y26	Z26	X27	Y27	Z27	X28	Y28	Z28	X29	Y29	Z29	X30	Y30	Z30	X31	Y31	Z31	X32	Y32	Z32	X33	Y33	Z33	

1	14.130000000000	693.688397384139	1006.249671896973	438.523326927091	868.428040244908	1431.646149462260	251.656651759316	975.818786595257	1363.094501115847	409.828009944435	897.134486792261	1440.471215562743	583.937242963722	869.426982421100	1493.547065917511	402.339117389853	918.673486574671	937.323102886830	552.851522916462	909.823495073680	962.790004790793	280.342730803297	997.518282974763	759.985153917870	527.047793781318	949.403038673630	640.049748225765	593.523329119651	1042.165103309013	600.640787554694	516.997029472373	1053.775049196182	483.917176721160	534.171751905117	967.665314844196	757.146289261022	311.658827635554	885.431165269744	638.562739055357	250.241481296710	968.093847299569	562.928851239742	318.178987189477	969.829673807798	492.757839569756	327.850194732259	943.195067579282	419.449443064797	316.542115183533	856.448931963991	305.016973615492	262.470208028038	906.163024512334	194.250438188457	334.437910634276	968.374713842037	416.529380274428	536.459806314995	840.669727404196	393.838516340834	591.627336454232	812.214021753735	289.381781803388	540.246118827615	610.942897905081	275.123586612411	508.296266520099	753.108388113550	164.109828187094	542.903389264110	647.957464868365	194.397333535341	575.787045005383	779.330968615447	35.923103752062	559.077423182909	778.016587855609	37.800917950299	372.736454609741	850.717810929165	34.666229620101	291.036607514797	933.281321576275	96.745120905936	317.226572374117	1061.975500456025	46.521294825827	286.291203382661	791.077809060254	1089.863056935790	127.558259305466	926.831386017836	865.767255094898	110.157887444576	857.506739781545	1093.537949631219	705.292776853993	969.850569274244	857.752449802628	685.547803477397	
2	14.142500000000	692.986153092793	1007.323208960329	436.506736883870	870.961067756192	1433.118850702962	252.252645135192	976.461320013422	1363.703932861721	411.235966968729	896.150715479554	1440.703242659618	584.733830444691	870.599087722006	1494.444954178248	403.189607232289	917.394448626885	938.954015601883	553.247408165157	910.368567053848	963.416478685623	280.475675931279	999.773815826366	765.826043476976	526.008075700406	955.906599609374	645.390955069828	593.249252669007	1048.737859483277	608.095055777706	515.759042388868	1064.228804971167	491.751848406699	533.385896307274	965.530430326818	756.113683790821	311.784121195526	881.773590194301	638.787051089657	249.918212575055	962.907909911993	562.035080586869	318.311367108725	963.581882895471	491.975154673113	328.025398451864	936.804779024974	419.101587133962	316.498820126612	849.614038162787	305.049029978377	262.316692937147	898.683983206861	194.075556236511	334.424082066381	980.410962664454	422.199909932098	536.199970646820	853.554817896279	395.843550237892	591.628535197213	827.964197517784	290.655882781465	540.289203653415	626.945359890701	269.422267114226	508.057679032831	773.387385643515	165.084893803700	544.598330338051	666.679878233273	190.676541935021	576.148481149645	804.224276865853	37.700337488024	560.980384194360	769.971868211361	37.748091250993	372.733520458710	842.706981021219	34.671758589587	290.973997189538	925.285685421473	96.715316387227	317.202271427007	1053.973284125099	46.427909512370	286.226956277842	793.454143054921	1092.214274974976	126.253688129937	933.293190653313	870.937288907772	110.013198438635	853.078998128299	1093.986280354199	704.917225587298	954.355469080410	854.019826558105	692.781627716079	
3	14.155000000000	692.314384769504	1008.366682234863	434.566075902750	873.499958879832	1434.549224665454	252.856208552319	977.114438062622	1364.288485651333	412.647300120534	895.195207531533	1440.937824357035	585.522095063813	871.771030718954	1495.320722279264	404.031713904092	916.128518999599	940.543232643795	553.640421396339	910.902788673015	964.033816990110	280.624197872112	1001.959927508936	771.598048421522	525.023739734073	962.241838001379	650.661014417645	593.025103289937	1055.159382460664	615.436470871778	514.645269195031	1074.415887478722	499.508682513759	532.758300568108	963.381156841695	755.086322382682	311.986732269834	878.152209960350	639.007216504400	249.597483032629	957.740334472324	561.147332288451	318.458006355854	957.364279027959	491.199322588044	328.195784957699	930.450474621870	418.757112614159	316.456471566632	842.827987903201	305.078106353403	262.162152068287	891.265858270693	193.902754466779	334.408101615881	992.277339977261	427.762216352946	536.045864532160	866.259516912842	397.621882157994	591.637996469438	843.697893311171	291.675182308278	540.377363965245	642.981604916063	263.204395576926	507.783449730175	793.740372503705	165.765023967914	546.246293074674	685.525408743846	186.568948432489	576.525203188118	829.395833009856	39.333598528238	562.967696646576	762.000056216626	37.693261711525	372.729703174657	834.769657355817	34.672634964390	290.913417324271	917.364190539879	96.683183972453	317.176490502903	1046.048647552606	46.335161330896	286.163684124602	795.828715078427	1094.511246046468	125.000424581480	939.668233011109	876.008639665298	109.954514477575	848.687765135873	1094.477579084711	704.626249609304	939.165743828040	850.550615903204	699.856102880967	
4	14.167500000000	691.709455285046	1009.347853577834	432.774672706324	876.048504123186	1435.891551496847	253.485499995404	977.793549769178	1364.816258125543	414.071201101074	894.305958503266	1441.165623728306	586.306645419412	872.950425024036	1496.144725070867	404.870418080603	914.903961222578	942.044307510871	554.037573751433	911.436600386579	964.627089954847	280.804296477630	1003.995010324532	777.167262190305	524.163522145972	968.179281960892	655.723514057838	592.903203969220	1061.212644904884	622.468252662508	513.776323685243	1084.007859299593	507.054154620692	532.414261257893	961.218773365323	754.069333914952	312.332467525271	874.595522297901	639.214181965339	249.289606423639	952.607302021058	560.266732997004	318.630853447368	951.200276558424	490.433112432968	328.359700693131	924.159141734810	418.414161206580	316.420032051437	836.121030228419	305.102378948928	262.010692393804	883.940453377880	193.731789848078	334.391403797383	1003.768206387881	433.077581020598	536.090869671290	878.679202004802	398.903745638635	591.716606654747	859.483552567424	292.191625325653	540.584299619494	659.312063036422	255.936220653778	507.532195847584	814.387868173585	165.910936152271	547.852073875575	704.828436615096	181.707486166813	576.995166861117	855.244818457242	40.808636560959	565.126720414132	754.136399954602	37.641857219370	372.723816507801	826.940104051590	34.669166023892	290.857887547088	909.553364791363	96.647568087336	317.150323672983	1038.237155201545	46.239376273474	286.102989914926	798.214765817479	1096.689943155672	123.862316149159	945.882163383292	880.871637586516	110.089939796505	844.357547776907	1095.047859225107	704.508417090661	924.563777267411	847.573105561519	706.635574183961	
5	14.180000000000	691.199373614659	1010.242372474571	431.186909367833	878.610165846134	1437.107624504677	254.160723357521	978.513585051198	1365.256933378959	415.518480409180	893.518306630501	1441.371456144349	587.097918436597	874.147726801073	1496.889618673369	405.717071583497	913.750242510127	943.418820381332	554.448471329023	911.989633317743	965.182664896896	281.025511360076	1005.813017906735	782.403886292305	523.490860545374	973.514018223432	660.441598509020	592.925299497971	1066.705532855420	629.001869961402	513.250980362559	1092.725496938362	514.260350430337	532.443645081948	959.049041709127	753.061390976211	312.861676259883	871.123389154727	639.398031546757	249.004527709240	947.519844906639	559.390594079046	318.839412785580	945.104797531706	489.676240565500	328.517161144919	917.946503271670	418.067232536284	316.395964557750	829.506500293598	305.120649686848	261.867951451101	876.716505964008	193.560261940170	334.376988693575	1014.713848231515	438.022143553058	536.405950436229	890.775917537524	399.444423086805	591.941797468541	875.428790163805	292.003015732705	540.985822427538	676.260380581394	247.176297693944	507.406272987163	835.589141920011	165.346616733709	549.448281883312	724.963988261427	175.793859244388	577.657561059126	882.155903745542	42.158480781463	567.518215061901	746.388472730040	37.600148346900	372.714810081860	819.223166992961	34.663827106617	290.809685934501	901.860607755059	96.607756448640	317.126320853923	1030.544021574441	46.136071000705	286.046532155585	800.634141871839	1098.694855570139	122.893959590175	951.884790325694	885.433022771338	110.515594647766	840.097241052856	1095.723422830335	704.643985984172	910.756483683503	845.246735007462	713.029200312271	
